# xmcd
#
# Track frame offsets: 
#        150
#        12437
#        23395
#        35818
#        49186
#        60606
#        74273
#        85736
#        98454
#        110194
#        123268
#        135871
#        148963
#        161979
#        173884
#        186183
#        197500
#        209444
#        220907
#        232614
#        243684
#        256191
#        268384
#        281951
#        294033
#        305879
#        317548
#
# Disc length: 4392 seconds
#
# Revision: 4
# Processed by: cddbd v1.5.2PL0 Copyright (c) Steve Scherf et al.
# Submitted via: ExactAudioCopyFreeDBPlugin 1.0
#
DISCID=9211261b
DTITLE=Various Artist - The Big Horn:  The History of the Honkin' and
DTITLE=Screamin' Saxophone [Proper Records]
DYEAR=2003
DGENRE=Rhythm and Blues
TTITLE0=Hal Singer and Tom Archia - Blow Your Brains Out
TTITLE1=Hal Singer and Tom Archia - Blowin' to California
TTITLE2=Hal Singer and Tom Archia - Boodie, Boodie
TTITLE3=Hal Singer - Cornbread
TTITLE4=Hal Singer - Beefstew
TTITLE5=John Hardee - Boogie Woogie Barbecue
TTITLE6=John Hardee - Rockin' and Sockin'
TTITLE7=Little Willie Jackson - Jackson's Boogie
TTITLE8=Little Willie Jackson - Let's Jump
TTITLE9=Eddie Chamblee - Long Gone, Part 2
TTITLE10=Eddie Chamblee - Back Street
TTITLE11=Eddie Chamblee - Southern Comfort
TTITLE12=Red Prysock - Hot in Harlem
TTITLE13=Red Prysock and Benny Golson - Battle of the Mass
TTITLE14=Red Prysock - Wiggles
TTITLE15=Red Prysock - The Hammer
TTITLE16=Red Prysock - Jackpot
TTITLE17=Red Prysock - Soft
TTITLE18=Earl Bostic - 8:45 Stomp
TTITLE19=Earl Bostic - Disc Jockey Nightmare
TTITLE20=Earl Bostic - Earl Blows a Fuse
TTITLE21=Earl Bostic - Flamingo
TTITLE22=Earl Bostic - Steam Whistle Jump
TTITLE23=Joe Thomas - Page Boy Shuffle
TTITLE24=Joe Thomas - Backstage at the Apollo
TTITLE25=Joe Thomas - Jumpin' Joe
TTITLE26=Harold Land - Outlandish
EXTD=
EXTT0=
EXTT1=
EXTT2=
EXTT3=
EXTT4=
EXTT5=
EXTT6=
EXTT7=
EXTT8=
EXTT9=
EXTT10=
EXTT11=
EXTT12=
EXTT13=
EXTT14=
EXTT15=
EXTT16=
EXTT17=
EXTT18=
EXTT19=
EXTT20=
EXTT21=
EXTT22=
EXTT23=
EXTT24=
EXTT25=
EXTT26=
PLAYORDER=
